{"title":"Barbie.Spy.Squad.2016.BRRip.480p.x264.AAC-VYTO [P2PDL]","uid":13797957,"size":297891426,"categoryP":"video","categoryS":"movies","magnet":"?xt=urn:btih:a280527951a08c1aa2f8e939e8a9c10dfa5913be&amp;dn=Barbie.Spy.Squad.2016.BRRip.480p.x264.AAC-VYTO+%5BP2PDL%5D&amp;tr=udp%3A%2F%2Ftracker.leechers-paradise.org%3A6969&amp;tr=udp%3A%2F%2Fzer0day.ch%3A1337&amp;tr=udp%3A%2F%2Fopen.demonii.com%3A1337&amp;tr=udp%3A%2F%2Ftracker.coppersurfer.tk%3A6969&amp;tr=udp%3A%2F%2Fexodus.desync.com%3A6969","seeders":0,"leechers":1,"uploader":"VYTOP2PDL","files":7,"time":1457433475,"description":"____    ____ ____    ____ .___________.  ______   \r\n     /   /      /   / |           | /  __    \r\n    /   /      /   /  `---|  |----`|  |  |  | \r\n        /     _    _/       |  |     |  |  |  | \r\n       /        |  |         |  |     |  `--'  | \r\n    __/         |__|         |__|      ______/  \r\n                                                  \r\nPresenting Small Encodes with quality for years!\r\n                                                                                                   \r\n                                                                                                   \r\n\r\n\r\nBarbie.Spy.Squad.2016.BRRip.480p.x264.AAC-VYTO\r\n\r\n\r\nGenre: Animation, Family \nhttp://www.imdb.com/title/tt5042436/\r\n\r\n\r\nFormat                         : MPEG-4\r\nFile size                      : 276 MiB\r\nDuration                       : 1h 15mn\r\nOverall bit rate               : 512 Kbps\r\n\r\nVideo\r\nFormat                         : AVC\r\nBit rate                       : 477 Kbps\r\nWidth                          : 720 pixels\r\nHeight                         : 400 pixels\r\nDisplay aspect ratio           : 16:9\r\nFrame rate mode                : Constant\r\nFrame rate                     : 23.976 fps\r\nBit depth                      : 8 bits\r\nStream size                    : 257 MiB (93%)\r\nWriting library                : x264\r\n\r\nAudio\r\nFormat                         : AAC\r\nBit rate                       : 32.0 Kbps\r\nChannel(s)                     : 2 channels\r\nChannel positions              : Front: L R \r\nSampling rate                  : 48.0 KHz \r\nStream size                    : 17.3 MiB (6%)\r\nLanguage                       : English\r\n\r\nSubtitle                       : Yes (English)\r\n\r\n\r\n----------------------------------------------------------------------------------------------------\r\n\r\n\r\nEncoder Notes: Looking For Early Access To Anything You Can Provide WEBDL, DVDScr, DVDR, BluRay,\r\nDirect Audio, Music Releases and Seedboxes. If You Got anything to offer please contact us.\r\n\r\nSupport us by donating BC - 1FgwdzPsd1y25Gea8wP1qni35uGCtmkRCD\r\n\r\nSend some love!\r\nFind us and join us!","torrent":{"xt":"urn:btih:a280527951a08c1aa2f8e939e8a9c10dfa5913be","amp;dn":"Barbie.Spy.Squad.2016.BRRip.480p.x264.AAC-VYTO+%5BP2PDL%5D","amp;tr":["udp%3A%2F%2Ftracker.leechers-paradise.org%3A6969","udp%3A%2F%2Fzer0day.ch%3A1337","udp%3A%2F%2Fopen.demonii.com%3A1337","udp%3A%2F%2Ftracker.coppersurfer.tk%3A6969","udp%3A%2F%2Fexodus.desync.com%3A6969"],"infoHash":"a280527951a08c1aa2f8e939e8a9c10dfa5913be","infoHashBuffer":{"type":"Buffer","data":[162,128,82,121,81,160,140,26,162,248,233,57,232,169,193,13,250,89,19,190]},"announce":[],"urlList":[]}}